<svg width="24" height="58" viewBox="0 0 24 58" fill="none" xmlns="http://www.w3.org/2000/svg">
<path d="M22.7646 57H15.6807V10.04L1.47461 15.2578V8.85938L21.6602 1.28027H22.7646V57Z" fill="black"/>
<path d="M22.7646 57V58H23.7646V57H22.7646ZM15.6807 57H14.6807V58H15.6807V57ZM15.6807 10.04H16.6807V8.60743L15.3359 9.10135L15.6807 10.04ZM1.47461 15.2578H0.474609V16.6904L1.81938 16.1965L1.47461 15.2578ZM1.47461 8.85938L1.1231 7.92319L0.474609 8.16668V8.85938H1.47461ZM21.6602 1.28027V0.280273H21.4786L21.3086 0.34409L21.6602 1.28027ZM22.7646 1.28027H23.7646V0.280273H22.7646V1.28027ZM22.7646 56H15.6807V58H22.7646V56ZM16.6807 57V10.04H14.6807V57H16.6807ZM15.3359 9.10135L1.12984 14.3191L1.81938 16.1965L16.0254 10.9787L15.3359 9.10135ZM2.47461 15.2578V8.85938H0.474609V15.2578H2.47461ZM1.82612 9.79556L22.0117 2.21646L21.3086 0.34409L1.1231 7.92319L1.82612 9.79556ZM21.6602 2.28027H22.7646V0.280273H21.6602V2.28027ZM21.7646 1.28027V57H23.7646V1.28027H21.7646Z" fill="#525151"/>
</svg>
