<svg width="40" height="59" viewBox="0 0 40 59" fill="none" xmlns="http://www.w3.org/2000/svg">
<path d="M38.9424 58H2.6084V52.9346L21.8037 31.6064C24.6475 28.3818 26.6025 25.7666 27.6689 23.7607C28.7607 21.7295 29.3066 19.6348 29.3066 17.4766C29.3066 14.582 28.4307 12.208 26.6787 10.3545C24.9268 8.50098 22.5908 7.57422 19.6709 7.57422C16.167 7.57422 13.4375 8.57715 11.4824 10.583C9.55273 12.5635 8.58789 15.3311 8.58789 18.8857H1.54199C1.54199 13.7822 3.17969 9.65625 6.45508 6.50781C9.75586 3.35937 14.1611 1.78516 19.6709 1.78516C24.8252 1.78516 28.9004 3.14355 31.8965 5.86035C34.8926 8.55176 36.3906 12.1445 36.3906 16.6387C36.3906 22.0977 32.9121 28.5977 25.9551 36.1387L11.1016 52.249H38.9424V58Z" fill="black"/>
<path d="M38.9424 58V59H39.9424V58H38.9424ZM2.6084 58H1.6084V59H2.6084V58ZM2.6084 52.9346L1.8651 52.2656L1.6084 52.5508V52.9346H2.6084ZM21.8037 31.6064L22.547 32.2754L22.5537 32.2679L21.8037 31.6064ZM27.6689 23.7607L26.7881 23.2873L26.786 23.2913L27.6689 23.7607ZM11.4824 10.583L10.7663 9.88502L10.7662 9.88514L11.4824 10.583ZM8.58789 18.8857V19.8857H9.58789V18.8857H8.58789ZM1.54199 18.8857H0.541992V19.8857H1.54199V18.8857ZM6.45508 6.50781L5.76486 5.7842L5.76208 5.78687L6.45508 6.50781ZM31.8965 5.86035L31.2247 6.60115L31.2282 6.60427L31.8965 5.86035ZM25.9551 36.1387L25.2201 35.4606L25.2199 35.4608L25.9551 36.1387ZM11.1016 52.249L10.3664 51.5712L8.81941 53.249H11.1016V52.249ZM38.9424 52.249H39.9424V51.249H38.9424V52.249ZM38.9424 57H2.6084V59H38.9424V57ZM3.6084 58V52.9346H1.6084V58H3.6084ZM3.35169 53.6035L22.547 32.2754L21.0604 30.9375L1.8651 52.2656L3.35169 53.6035ZM22.5537 32.2679C25.412 29.0268 27.4295 26.3414 28.5519 24.2302L26.786 23.2913C25.7756 25.1919 23.8829 27.7369 21.0537 30.945L22.5537 32.2679ZM28.5498 24.2342C29.7143 22.0677 30.3066 19.8113 30.3066 17.4766H28.3066C28.3066 19.4583 27.8072 21.3913 26.7881 23.2873L28.5498 24.2342ZM30.3066 17.4766C30.3066 14.3638 29.3569 11.7321 27.4054 9.66758L25.952 11.0414C27.5045 12.6839 28.3066 14.8003 28.3066 17.4766H30.3066ZM27.4054 9.66758C25.4366 7.58457 22.8222 6.57422 19.6709 6.57422V8.57422C22.3595 8.57422 24.4169 9.41739 25.952 11.0414L27.4054 9.66758ZM19.6709 6.57422C15.9691 6.57422 12.9544 7.6401 10.7663 9.88502L12.1985 11.281C13.9206 9.5142 16.3649 8.57422 19.6709 8.57422V6.57422ZM10.7662 9.88514C8.60678 12.1014 7.58789 15.1479 7.58789 18.8857H9.58789C9.58789 15.5142 10.4987 13.0256 12.1987 11.2809L10.7662 9.88514ZM8.58789 17.8857H1.54199V19.8857H8.58789V17.8857ZM2.54199 18.8857C2.54199 14.0174 4.09391 10.1645 7.14808 7.22875L5.76208 5.78687C2.26546 9.14796 0.541992 13.547 0.541992 18.8857H2.54199ZM7.14529 7.23142C10.2228 4.29599 14.3615 2.78516 19.6709 2.78516V0.785156C13.9607 0.785156 9.28896 2.42276 5.76487 5.7842L7.14529 7.23142ZM19.6709 2.78516C24.6473 2.78516 28.4589 4.09311 31.2247 6.60114L32.5682 5.11956C29.3419 2.194 25.0031 0.785156 19.6709 0.785156V2.78516ZM31.2282 6.60427C33.9874 9.08285 35.3906 12.3917 35.3906 16.6387H37.3906C37.3906 11.8973 35.7978 8.02067 32.5648 5.11643L31.2282 6.60427ZM35.3906 16.6387C35.3906 21.7025 32.1393 27.9606 25.2201 35.4606L26.6901 36.8167C33.6849 29.2347 37.3906 22.4928 37.3906 16.6387H35.3906ZM25.2199 35.4608L10.3664 51.5712L11.8368 52.9269L26.6903 36.8165L25.2199 35.4608ZM11.1016 53.249H38.9424V51.249H11.1016V53.249ZM37.9424 52.249V58H39.9424V52.249H37.9424Z" fill="#525151"/>
</svg>
