<svg width="38" height="60" viewBox="0 0 38 60" fill="none" xmlns="http://www.w3.org/2000/svg">
<path d="M12.8535 26.8457H18.1475C21.4736 26.7949 24.0889 25.9189 25.9932 24.2178C27.8975 22.5166 28.8496 20.2188 28.8496 17.3242C28.8496 10.8242 25.6123 7.57422 19.1377 7.57422C16.0908 7.57422 13.6533 8.4502 11.8252 10.2021C10.0225 11.9287 9.12109 14.2266 9.12109 17.0957H2.0752C2.0752 12.7031 3.6748 9.05957 6.87402 6.16504C10.0986 3.24512 14.1865 1.78516 19.1377 1.78516C24.3682 1.78516 28.4688 3.16895 31.4395 5.93652C34.4102 8.7041 35.8955 12.5508 35.8955 17.4766C35.8955 19.8887 35.1084 22.2246 33.5342 24.4844C31.9854 26.7441 29.8652 28.4326 27.1738 29.5498C30.2207 30.5146 32.5693 32.1143 34.2197 34.3486C35.8955 36.583 36.7334 39.3125 36.7334 42.5371C36.7334 47.5137 35.1084 51.4619 31.8584 54.3818C28.6084 57.3018 24.3809 58.7617 19.1758 58.7617C13.9707 58.7617 9.73047 57.3525 6.45508 54.5342C3.20508 51.7158 1.58008 47.9961 1.58008 43.375H8.66406C8.66406 46.2949 9.61621 48.6309 11.5205 50.3828C13.4248 52.1348 15.9766 53.0107 19.1758 53.0107C22.5781 53.0107 25.1807 52.1221 26.9834 50.3447C28.7861 48.5674 29.6875 46.0156 29.6875 42.6895C29.6875 39.4648 28.6973 36.9893 26.7168 35.2627C24.7363 33.5361 21.8799 32.6475 18.1475 32.5967H12.8535V26.8457Z" fill="black"/>
<path d="M12.8535 26.8457V25.8457H11.8535V26.8457H12.8535ZM18.1475 26.8457V27.8457H18.1551L18.1627 27.8456L18.1475 26.8457ZM11.8252 10.2021L12.5169 10.9243L12.5171 10.9241L11.8252 10.2021ZM9.12109 17.0957V18.0957H10.1211V17.0957H9.12109ZM2.0752 17.0957H1.0752V18.0957H2.0752V17.0957ZM6.87402 6.16504L7.54494 6.90657L7.54524 6.9063L6.87402 6.16504ZM33.5342 24.4844L32.7136 23.9128L32.7093 23.919L33.5342 24.4844ZM27.1738 29.5498L26.7905 28.6262L24.2608 29.6763L26.8719 30.5031L27.1738 29.5498ZM34.2197 34.3486L33.4153 34.9428L33.4197 34.9486L34.2197 34.3486ZM6.45508 54.5342L5.79992 55.2897L5.80284 55.2922L6.45508 54.5342ZM1.58008 43.375V42.375H0.580078V43.375H1.58008ZM8.66406 43.375H9.66406V42.375H8.66406V43.375ZM18.1475 32.5967L18.1611 31.5967H18.1475V32.5967ZM12.8535 32.5967H11.8535V33.5967H12.8535V32.5967ZM12.8535 27.8457H18.1475V25.8457H12.8535V27.8457ZM18.1627 27.8456C21.6551 27.7923 24.5272 26.8683 26.6594 24.9635L25.327 23.472C23.6506 24.9696 21.2921 25.7976 18.1322 25.8458L18.1627 27.8456ZM26.6594 24.9635C28.8056 23.0462 29.8496 20.4613 29.8496 17.3242H27.8496C27.8496 19.9762 26.9893 21.987 25.327 23.472L26.6594 24.9635ZM29.8496 17.3242C29.8496 13.9211 29.0016 11.1848 27.1301 9.306C25.2579 7.42646 22.5301 6.57422 19.1377 6.57422V8.57422C22.2199 8.57422 24.348 9.34697 25.7131 10.7174C27.079 12.0886 27.8496 14.2274 27.8496 17.3242H29.8496ZM19.1377 6.57422C15.8887 6.57422 13.1842 7.51466 11.1333 9.48016L12.5171 10.9241C14.1224 9.38573 16.293 8.57422 19.1377 8.57422V6.57422ZM11.1335 9.47995C9.10385 11.4238 8.12109 13.9984 8.12109 17.0957H10.1211C10.1211 14.4548 10.9411 12.4336 12.5169 10.9243L11.1335 9.47995ZM9.12109 16.0957H2.0752V18.0957H9.12109V16.0957ZM3.0752 17.0957C3.0752 12.9799 4.55955 9.60764 7.54494 6.90657L6.20311 5.4235C2.79006 8.5115 1.0752 12.4264 1.0752 17.0957H3.0752ZM7.54524 6.9063C10.5604 4.17601 14.3979 2.78516 19.1377 2.78516V0.785156C13.9752 0.785156 9.63683 2.31423 6.2028 5.42378L7.54524 6.9063ZM19.1377 2.78516C24.1906 2.78516 28.0209 4.11839 30.7578 6.6682L32.1211 5.20484C28.9166 2.2195 24.5457 0.785156 19.1377 0.785156V2.78516ZM30.7578 6.6682C33.4831 9.20711 34.8955 12.7645 34.8955 17.4766H36.8955C36.8955 12.3371 35.3373 8.20109 32.1211 5.20484L30.7578 6.6682ZM34.8955 17.4766C34.8955 19.6562 34.1882 21.7961 32.7137 23.9128L34.3547 25.056C36.0286 22.6531 36.8955 20.1211 36.8955 17.4766H34.8955ZM32.7093 23.919C31.277 26.0088 29.3151 27.5783 26.7905 28.6262L27.5572 30.4734C30.4154 29.287 32.6937 27.4794 34.359 25.0497L32.7093 23.919ZM26.8719 30.5031C29.749 31.4142 31.9086 32.9029 33.4154 34.9428L35.0241 33.7545C33.23 31.3256 30.6924 29.6151 27.4757 28.5965L26.8719 30.5031ZM33.4197 34.9486C34.9463 36.984 35.7334 39.4941 35.7334 42.5371H37.7334C37.7334 39.1309 36.8448 36.182 35.0197 33.7486L33.4197 34.9486ZM35.7334 42.5371C35.7334 47.2736 34.1985 50.9351 31.1901 53.638L32.5267 55.1257C36.0183 51.9888 37.7334 47.7538 37.7334 42.5371H35.7334ZM31.1901 53.638C28.1576 56.3625 24.184 57.7617 19.1758 57.7617V59.7617C24.5778 59.7617 29.0592 58.2411 32.5267 55.1257L31.1901 53.638ZM19.1758 57.7617C14.1589 57.7617 10.1659 56.408 7.10732 53.7762L5.80284 55.2922C9.29504 58.2971 13.7825 59.7617 19.1758 59.7617V57.7617ZM7.11023 53.7787C4.09702 51.1657 2.58008 47.7305 2.58008 43.375H0.580078C0.580078 48.2616 2.31314 52.266 5.79992 55.2897L7.11023 53.7787ZM1.58008 44.375H8.66406V42.375H1.58008V44.375ZM7.66406 43.375C7.66406 46.5349 8.70582 49.1521 10.8435 51.1187L12.1976 49.6469C10.5266 48.1096 9.66406 46.0549 9.66406 43.375H7.66406ZM10.8435 51.1187C12.9734 53.0783 15.7878 54.0107 19.1758 54.0107V52.0107C16.1653 52.0107 13.8762 51.1912 12.1976 49.6469L10.8435 51.1187ZM19.1758 54.0107C22.748 54.0107 25.6385 53.075 27.6855 51.0568L26.2813 49.6326C24.7228 51.1692 22.4083 52.0107 19.1758 52.0107V54.0107ZM27.6855 51.0568C29.7332 49.038 30.6875 46.1959 30.6875 42.6895H28.6875C28.6875 45.8354 27.8391 48.0968 26.2813 49.6326L27.6855 51.0568ZM30.6875 42.6895C30.6875 39.2472 29.6208 36.4678 27.3739 34.5089L26.0597 36.0165C27.7737 37.5108 28.6875 39.6825 28.6875 42.6895H30.6875ZM27.3739 34.5089C25.1527 32.5724 22.0321 31.6494 18.1611 31.5968L18.1339 33.5966C21.7276 33.6455 24.32 34.4998 26.0597 36.0165L27.3739 34.5089ZM18.1475 31.5967H12.8535V33.5967H18.1475V31.5967ZM13.8535 32.5967V26.8457H11.8535V32.5967H13.8535Z" fill="#525151"/>
</svg>
