<svg width="43" height="58" viewBox="0 0 43 58" fill="none" xmlns="http://www.w3.org/2000/svg">
<path d="M33.3535 38.376H41.0469V44.127H33.3535V57H26.2695V44.127H1.01855V39.9756L25.8506 1.54688H33.3535V38.376ZM9.0166 38.376H26.2695V11.1826L25.4316 12.7061L9.0166 38.376Z" fill="black"/>
<path d="M33.3535 38.376H32.3535V39.376H33.3535V38.376ZM41.0469 38.376H42.0469V37.376H41.0469V38.376ZM41.0469 44.127V45.127H42.0469V44.127H41.0469ZM33.3535 44.127V43.127H32.3535V44.127H33.3535ZM33.3535 57V58H34.3535V57H33.3535ZM26.2695 57H25.2695V58H26.2695V57ZM26.2695 44.127H27.2695V43.127H26.2695V44.127ZM1.01855 44.127H0.0185547V45.127H1.01855V44.127ZM1.01855 39.9756L0.17865 39.4329L0.0185547 39.6806V39.9756H1.01855ZM25.8506 1.54688V0.546875H25.3062L25.0107 1.00414L25.8506 1.54688ZM33.3535 1.54688H34.3535V0.546875H33.3535V1.54688ZM9.0166 38.376L8.17413 37.8372L7.19016 39.376H9.0166V38.376ZM26.2695 38.376V39.376H27.2695V38.376H26.2695ZM26.2695 11.1826H27.2695L25.3933 10.7007L26.2695 11.1826ZM25.4316 12.7061L26.2741 13.2448L26.2919 13.2169L26.3079 13.188L25.4316 12.7061ZM33.3535 39.376H41.0469V37.376H33.3535V39.376ZM40.0469 38.376V44.127H42.0469V38.376H40.0469ZM41.0469 43.127H33.3535V45.127H41.0469V43.127ZM32.3535 44.127V57H34.3535V44.127H32.3535ZM33.3535 56H26.2695V58H33.3535V56ZM27.2695 57V44.127H25.2695V57H27.2695ZM26.2695 43.127H1.01855V45.127H26.2695V43.127ZM2.01855 44.127V39.9756H0.0185547V44.127H2.01855ZM1.85846 40.5183L26.6905 2.08961L25.0107 1.00414L0.17865 39.4329L1.85846 40.5183ZM25.8506 2.54688H33.3535V0.546875H25.8506V2.54688ZM32.3535 1.54688V38.376H34.3535V1.54688H32.3535ZM9.0166 39.376H26.2695V37.376H9.0166V39.376ZM27.2695 38.376V11.1826H25.2695V38.376H27.2695ZM25.3933 10.7007L24.5554 12.2241L26.3079 13.188L27.1457 11.6645L25.3933 10.7007ZM24.5892 12.1673L8.17413 37.8372L9.85908 38.9147L26.2741 13.2448L24.5892 12.1673Z" fill="#525151"/>
</svg>
