<svg width="38" height="59" viewBox="0 0 38 59" fill="none" xmlns="http://www.w3.org/2000/svg">
<path d="M3.8457 29.1973L6.66406 1.54688H35.0762V8.05957H12.6436L10.9678 23.1797C13.6846 21.5801 16.7695 20.7803 20.2227 20.7803C25.2754 20.7803 29.2871 22.4561 32.2578 25.8076C35.2285 29.1338 36.7139 33.6406 36.7139 39.3281C36.7139 45.041 35.165 49.5479 32.0674 52.8486C28.9951 56.124 24.6914 57.7617 19.1562 57.7617C14.2559 57.7617 10.2568 56.4033 7.15918 53.6865C4.06152 50.9697 2.29688 47.2119 1.86523 42.4131H8.53027C8.96191 45.5869 10.0918 47.9863 11.9199 49.6113C13.748 51.2109 16.1602 52.0107 19.1562 52.0107C22.4316 52.0107 24.9961 50.8936 26.8496 48.6592C28.7285 46.4248 29.668 43.3398 29.668 39.4043C29.668 35.6973 28.6523 32.7266 26.6211 30.4922C24.6152 28.2324 21.9365 27.1025 18.585 27.1025C15.5127 27.1025 13.1006 27.7754 11.3486 29.1211L9.48242 30.6445L3.8457 29.1973Z" fill="black"/>
<path d="M3.8457 29.1973L2.85086 29.0959L2.76361 29.9519L3.59701 30.1658L3.8457 29.1973ZM6.66406 1.54688V0.546875H5.76081L5.66922 1.44547L6.66406 1.54688ZM35.0762 1.54688H36.0762V0.546875H35.0762V1.54688ZM35.0762 8.05957V9.05957H36.0762V8.05957H35.0762ZM12.6436 8.05957V7.05957H11.7483L11.6496 7.94941L12.6436 8.05957ZM10.9678 23.1797L9.97386 23.0695L9.75382 25.0549L11.4751 24.0414L10.9678 23.1797ZM32.2578 25.8076L31.5095 26.4709L31.512 26.4737L32.2578 25.8076ZM32.0674 52.8486L31.3382 52.1643L31.338 52.1645L32.0674 52.8486ZM1.86523 42.4131V41.4131H0.77125L0.869255 42.5027L1.86523 42.4131ZM8.53027 42.4131L9.52115 42.2783L9.40348 41.4131H8.53027V42.4131ZM11.9199 49.6113L11.2555 50.3588L11.2614 50.3639L11.9199 49.6113ZM26.8496 48.6592L26.0842 48.0156L26.08 48.0207L26.8496 48.6592ZM26.6211 30.4922L25.8732 31.1561L25.8812 31.1649L26.6211 30.4922ZM11.3486 29.1211L10.7395 28.328L10.7277 28.3371L10.7163 28.3464L11.3486 29.1211ZM9.48242 30.6445L9.23373 31.6131L9.72327 31.7388L10.1148 31.4192L9.48242 30.6445ZM4.84055 29.2987L7.65891 1.64828L5.66922 1.44547L2.85086 29.0959L4.84055 29.2987ZM6.66406 2.54688H35.0762V0.546875H6.66406V2.54688ZM34.0762 1.54688V8.05957H36.0762V1.54688H34.0762ZM35.0762 7.05957H12.6436V9.05957H35.0762V7.05957ZM11.6496 7.94941L9.97386 23.0695L11.9617 23.2898L13.6375 8.16973L11.6496 7.94941ZM11.4751 24.0414C14.0238 22.5408 16.9304 21.7803 20.2227 21.7803V19.7803C16.6086 19.7803 13.3454 20.6193 10.4604 22.318L11.4751 24.0414ZM20.2227 21.7803C25.0301 21.7803 28.754 23.3622 31.5095 26.4709L33.0062 25.1443C29.8202 21.5499 25.5207 19.7803 20.2227 19.7803V21.7803ZM31.512 26.4737C34.2778 29.5705 35.7139 33.8166 35.7139 39.3281H37.7139C37.7139 33.4647 36.1792 28.6971 33.0036 25.1415L31.512 26.4737ZM35.7139 39.3281C35.7139 44.8563 34.2195 49.094 31.3382 52.1643L32.7966 53.5329C36.1105 50.0017 37.7139 45.2258 37.7139 39.3281H35.7139ZM31.338 52.1645C28.4973 55.1931 24.484 56.7617 19.1562 56.7617V58.7617C24.8988 58.7617 29.493 57.055 32.7967 53.5328L31.338 52.1645ZM19.1562 56.7617C14.4501 56.7617 10.7005 55.4623 7.81856 52.9347L6.4998 54.4383C9.81321 57.3444 14.0616 58.7617 19.1562 58.7617V56.7617ZM7.81856 52.9347C4.94636 50.4157 3.27402 46.913 2.86121 42.3235L0.869255 42.5027C1.31973 47.5109 3.17668 51.5238 6.4998 54.4383L7.81856 52.9347ZM1.86523 43.4131H8.53027V41.4131H1.86523V43.4131ZM7.5394 42.5478C7.99309 45.8839 9.19981 48.5314 11.2556 50.3587L12.5843 48.8639C10.9838 47.4413 9.93074 45.29 9.52115 42.2783L7.5394 42.5478ZM11.2614 50.3639C13.3117 52.1579 15.9767 53.0107 19.1562 53.0107V51.0107C16.3436 51.0107 14.1844 50.264 12.5784 48.8588L11.2614 50.3639ZM19.1562 53.0107C22.6863 53.0107 25.55 51.7922 27.6193 49.2976L26.08 48.0207C24.4422 49.995 22.177 51.0107 19.1562 51.0107V53.0107ZM27.615 49.3028C29.6911 46.8339 30.668 43.4931 30.668 39.4043H28.668C28.668 43.1866 27.766 46.0157 26.0842 48.0156L27.615 49.3028ZM30.668 39.4043C30.668 35.5078 29.5956 32.2776 27.361 29.8195L25.8812 31.1649C27.709 33.1755 28.668 35.8867 28.668 39.4043H30.668ZM27.369 29.8283C25.1513 27.33 22.1875 26.1025 18.585 26.1025V28.1025C21.6855 28.1025 24.0791 29.1348 25.8732 31.156L27.369 29.8283ZM18.585 26.1025C15.3768 26.1025 12.723 26.8045 10.7395 28.328L11.9578 29.9141C13.4782 28.7463 15.6486 28.1025 18.585 28.1025V26.1025ZM10.7163 28.3464L8.85005 29.8699L10.1148 31.4192L11.981 29.8958L10.7163 28.3464ZM9.73111 29.6759L4.09439 28.2287L3.59701 30.1658L9.23373 31.6131L9.73111 29.6759Z" fill="#525151"/>
</svg>
