<svg width="38" height="59" viewBox="0 0 38 59" fill="none" xmlns="http://www.w3.org/2000/svg">
<path d="M28.2588 1.50879V7.48828H26.9639C21.4795 7.58984 17.1123 9.21484 13.8623 12.3633C10.6123 15.5117 8.7334 19.9424 8.22559 25.6553C11.1455 22.3037 15.1318 20.6279 20.1846 20.6279C25.0088 20.6279 28.8555 22.3291 31.7246 25.7314C34.6191 29.1338 36.0664 33.5264 36.0664 38.9092C36.0664 44.6221 34.5049 49.1924 31.3818 52.6201C28.2842 56.0479 24.1201 57.7617 18.8896 57.7617C13.583 57.7617 9.2793 55.7305 5.97852 51.668C2.67773 47.5801 1.02734 42.3242 1.02734 35.9004V33.1963C1.02734 22.9893 3.19824 15.1943 7.54004 9.81152C11.9072 4.40332 18.3945 1.63574 27.002 1.50879H28.2588ZM19.0039 26.4932C16.5918 26.4932 14.3701 27.2168 12.3389 28.6641C10.3076 30.1113 8.89844 31.9268 8.11133 34.1104V36.7002C8.11133 41.2705 9.13965 44.9521 11.1963 47.7451C13.2529 50.5381 15.8174 51.9346 18.8896 51.9346C22.0635 51.9346 24.5518 50.7666 26.3545 48.4307C28.1826 46.0947 29.0967 43.0352 29.0967 39.252C29.0967 35.4434 28.1699 32.3711 26.3164 30.0352C24.4883 27.6738 22.0508 26.4932 19.0039 26.4932Z" fill="black"/>
<path d="M28.2588 1.50879H29.2588V0.508789H28.2588V1.50879ZM28.2588 7.48828V8.48828H29.2588V7.48828H28.2588ZM26.9639 7.48828V6.48828H26.9546L26.9454 6.48845L26.9639 7.48828ZM8.22559 25.6553L7.22951 25.5667L6.95688 28.6339L8.97958 26.3122L8.22559 25.6553ZM31.7246 25.7314L30.9601 26.3761L30.963 26.3794L31.7246 25.7314ZM31.3818 52.6201L30.6426 51.9466L30.6399 51.9496L31.3818 52.6201ZM5.97852 51.668L5.20048 52.2962L5.2024 52.2986L5.97852 51.668ZM7.54004 9.81152L6.76203 9.18327L6.76168 9.1837L7.54004 9.81152ZM27.002 1.50879V0.508789H26.9946L26.9872 0.508898L27.002 1.50879ZM8.11133 34.1104L7.17058 33.7712L7.11133 33.9356V34.1104H8.11133ZM26.3545 48.4307L25.567 47.8143L25.5628 47.8197L26.3545 48.4307ZM26.3164 30.0352L25.5256 30.6474L25.5331 30.6567L26.3164 30.0352ZM27.2588 1.50879V7.48828H29.2588V1.50879H27.2588ZM28.2588 6.48828H26.9639V8.48828H28.2588V6.48828ZM26.9454 6.48845C21.2645 6.59365 16.6355 8.28446 13.1665 11.645L14.5581 13.0815C17.5891 10.1452 21.6945 8.58603 26.9824 8.48811L26.9454 6.48845ZM13.1665 11.645C9.70189 15.0014 7.75273 19.6805 7.22951 25.5667L9.22166 25.7438C9.71407 20.2042 11.5227 16.022 14.5581 13.0815L13.1665 11.645ZM8.97958 26.3122C11.6825 23.2097 15.377 21.6279 20.1846 21.6279V19.6279C14.8867 19.6279 10.6085 21.3977 7.4716 24.9984L8.97958 26.3122ZM20.1846 21.6279C24.7421 21.6279 28.2984 23.2197 30.9601 26.3761L32.4891 25.0868C29.4125 21.4385 25.2754 19.6279 20.1846 19.6279V21.6279ZM30.963 26.3794C33.6736 29.5657 35.0664 33.713 35.0664 38.9092H37.0664C37.0664 33.3397 35.5647 28.7019 32.4863 25.0835L30.963 26.3794ZM35.0664 38.9092C35.0664 44.4334 33.5612 48.7434 30.6426 51.9466L32.121 53.2936C35.4486 49.6414 37.0664 44.8107 37.0664 38.9092H35.0664ZM30.6399 51.9496C27.7579 55.1387 23.8787 56.7617 18.8896 56.7617V58.7617C24.3615 58.7617 28.8104 56.957 32.1238 53.2906L30.6399 51.9496ZM18.8896 56.7617C13.8793 56.7617 9.86249 54.8624 6.75463 51.0374L5.2024 52.2986C8.6961 56.5985 13.2867 58.7617 18.8896 58.7617V56.7617ZM6.75655 51.0397C3.62924 47.1667 2.02734 42.1481 2.02734 35.9004H0.0273438C0.0273438 42.5003 1.72623 47.9935 5.20048 52.2962L6.75655 51.0397ZM2.02734 35.9004V33.1963H0.0273438V35.9004H2.02734ZM2.02734 33.1963C2.02734 23.1128 4.17436 15.577 8.31839 10.4393L6.76168 9.1837C2.22213 14.8117 0.0273438 22.8657 0.0273438 33.1963H2.02734ZM8.31805 10.4398C12.455 5.31674 18.6289 2.63239 27.0167 2.50868L26.9872 0.508898C18.1601 0.639091 11.3595 3.4899 6.76203 9.18327L8.31805 10.4398ZM27.002 2.50879H28.2588V0.508789H27.002V2.50879ZM19.0039 25.4932C16.3764 25.4932 13.9531 26.286 11.7586 27.8496L12.9191 29.4785C14.7871 28.1475 16.8072 27.4932 19.0039 27.4932V25.4932ZM11.7586 27.8496C9.57462 29.4057 8.03191 31.3817 7.17058 33.7712L9.05208 34.4495C9.76496 32.4718 11.0406 30.8169 12.9191 29.4785L11.7586 27.8496ZM7.11133 34.1104V36.7002H9.11133V34.1104H7.11133ZM7.11133 36.7002C7.11133 41.4164 8.17303 45.3259 10.391 48.3381L12.0015 47.1522C10.1063 44.5784 9.11133 41.1246 9.11133 36.7002H7.11133ZM10.391 48.3381C12.6082 51.349 15.4552 52.9346 18.8896 52.9346V50.9346C16.1796 50.9346 13.8976 49.7271 12.0015 47.1522L10.391 48.3381ZM18.8896 52.9346C22.3463 52.9346 25.1381 51.6436 27.1462 49.0416L25.5628 47.8197C23.9654 49.8896 21.7806 50.9346 18.8896 50.9346V52.9346ZM27.142 49.047C29.1419 46.4916 30.0967 43.1962 30.0967 39.252H28.0967C28.0967 42.8741 27.2234 45.6979 25.567 47.8144L27.142 49.047ZM30.0967 39.252C30.0967 35.2812 29.1285 31.9704 27.0998 29.4136L25.5331 30.6567C27.2113 32.7718 28.0967 35.6056 28.0967 39.252H30.0967ZM27.1071 29.423C25.0852 26.8113 22.3528 25.4932 19.0039 25.4932V27.4932C21.7488 27.4932 23.8914 28.5364 25.5257 30.6473L27.1071 29.423Z" fill="#525151"/>
</svg>
