<svg width="41" height="58" viewBox="0 0 41 58" fill="none" xmlns="http://www.w3.org/2000/svg">
<path d="M39.4092 5.50781L16.4434 57H9.05469L31.9443 7.33594H1.93262V1.54688H39.4092V5.50781Z" fill="black"/>
<path d="M39.4092 5.50781L40.3225 5.91514L40.4092 5.72071V5.50781H39.4092ZM16.4434 57V58H17.0923L17.3566 57.4073L16.4434 57ZM9.05469 57L8.1465 56.5814L7.4927 58H9.05469V57ZM31.9443 7.33594L32.8525 7.75451L33.5063 6.33594H31.9443V7.33594ZM1.93262 7.33594H0.932617V8.33594H1.93262V7.33594ZM1.93262 1.54688V0.546875H0.932617V1.54688H1.93262ZM39.4092 1.54688H40.4092V0.546875H39.4092V1.54688ZM38.4959 5.10048L15.5301 56.5927L17.3566 57.4073L40.3225 5.91514L38.4959 5.10048ZM16.4434 56H9.05469V58H16.4434V56ZM9.96287 57.4186L32.8525 7.75451L31.0362 6.91737L8.1465 56.5814L9.96287 57.4186ZM31.9443 6.33594H1.93262V8.33594H31.9443V6.33594ZM2.93262 7.33594V1.54688H0.932617V7.33594H2.93262ZM1.93262 2.54688H39.4092V0.546875H1.93262V2.54688ZM38.4092 1.54688V5.50781H40.4092V1.54688H38.4092Z" fill="#525151"/>
</svg>
