<svg width="68" height="88" viewBox="0 0 68 88" fill="none" xmlns="http://www.w3.org/2000/svg">
<path d="M5.31971 77.5017H63.1798C64.4014 77.5021 65.5774 77.9661 66.47 78.8002C67.3627 79.6342 67.9055 80.7759 67.9888 81.9947C68.072 83.2135 67.6895 84.4185 66.9186 85.3662C66.1477 86.3138 65.0458 86.9335 63.8355 87.1L63.1798 87.145H5.31971C4.09807 87.1447 2.92211 86.6806 2.02946 85.8466C1.1368 85.0126 0.594 83.8708 0.510733 82.652C0.427466 81.4332 0.809941 80.2282 1.58088 79.2806C2.35181 78.3329 3.45373 77.7132 4.66397 77.5467L5.31971 77.5017H63.1798H5.31971ZM33.594 0.39996L34.2497 0.354958C35.4149 0.355007 36.5406 0.776968 37.4187 1.54281C38.2969 2.30864 38.868 3.36655 39.0264 4.52088L39.0714 5.17663V54.602L53.5686 40.1112C54.3862 39.2939 55.4702 38.7976 56.6231 38.7126C57.776 38.6277 58.921 38.9597 59.8496 39.6484L60.3896 40.1112C61.2069 40.9288 61.7033 42.0128 61.7883 43.1657C61.8732 44.3187 61.5411 45.4637 60.8525 46.3923L60.3896 46.9323L37.6571 69.6584C36.8407 70.475 35.7583 70.9715 34.6069 71.0576C33.4554 71.1438 32.3112 70.8138 31.3825 70.1278L30.8424 69.6584L8.10985 46.9323C7.24714 46.072 6.74212 44.9169 6.69634 43.6994C6.65056 42.4818 7.0674 41.2921 7.86306 40.3694C8.65873 39.4467 9.77421 38.8594 10.9852 38.7257C12.1963 38.5919 13.413 38.9216 14.3909 39.6484L14.9309 40.1112L29.4281 54.6148V5.17663C29.4281 4.01147 29.8501 2.88574 30.6159 2.00763C31.3818 1.12952 32.4397 0.558421 33.594 0.39996L34.2497 0.354958L33.594 0.39996Z" fill="white"/>
</svg>
