<svg width="34" height="74" viewBox="0 0 34 74" fill="none" xmlns="http://www.w3.org/2000/svg">
<path d="M32.1113 73H18V18.6055L1.1543 23.8301V12.3555L30.5977 1.80859H32.1113V73Z" fill="black"/>
<path d="M32.1113 73V74H33.1113V73H32.1113ZM18 73H17V74H18V73ZM18 18.6055H19V17.2483L17.7038 17.6504L18 18.6055ZM1.1543 23.8301H0.154297V25.1872L1.45052 24.7852L1.1543 23.8301ZM1.1543 12.3555L0.817071 11.414L0.154297 11.6515V12.3555H1.1543ZM30.5977 1.80859V0.808594H30.424L30.2604 0.86717L30.5977 1.80859ZM32.1113 1.80859H33.1113V0.808594H32.1113V1.80859ZM32.1113 72H18V74H32.1113V72ZM19 73V18.6055H17V73H19ZM17.7038 17.6504L0.858072 22.875L1.45052 24.7852L18.2962 19.5606L17.7038 17.6504ZM2.1543 23.8301V12.3555H0.154297V23.8301H2.1543ZM1.49152 13.2969L30.9349 2.75002L30.2604 0.86717L0.817071 11.414L1.49152 13.2969ZM30.5977 2.80859H32.1113V0.808594H30.5977V2.80859ZM31.1113 1.80859V73H33.1113V1.80859H31.1113Z" fill="#E6E3E3"/>
</svg>
