<svg width="896" height="896" viewBox="0 0 896 896" fill="none" xmlns="http://www.w3.org/2000/svg">
<path d="M448 0C200.6 0 0 200.6 0 448C0 695.4 200.6 896 448 896C695.4 896 896 695.4 896 448C896 200.6 695.4 0 448 0ZM592.1 454.9L373.7 613.8C372.503 614.66 371.091 615.174 369.621 615.285C368.151 615.395 366.679 615.098 365.366 614.426C364.054 613.755 362.952 612.734 362.181 611.477C361.411 610.22 361.002 608.774 361 607.3V289.7C360.995 288.223 361.399 286.773 362.168 285.511C362.937 284.25 364.04 283.225 365.355 282.552C366.67 281.879 368.146 281.583 369.619 281.698C371.092 281.812 372.504 282.332 373.7 283.2L592.1 442C593.132 442.73 593.973 443.696 594.554 444.819C595.135 445.941 595.438 447.186 595.438 448.45C595.438 449.714 595.135 450.959 594.554 452.081C593.973 453.204 593.132 454.17 592.1 454.9V454.9Z" fill="white"/>
</svg>
